#!OML:ASF F:\VICON\USERDATA\INSTALL\rory3\rory3.ASF
:FULLY-SPECIFIED
:DEGREES
62
root 1.74099 17.4123 -38.4581 11.4794 -0.845784 -6.45739
lowerback -4.97503 1.14285 6.70766
upperback -3.59423 1.27498 1.7924
thorax -0.824988 0.539587 -1.85369
lowerneck -17.2641 -3.33876 -7.74007
upperneck 26.0598 -3.62921 4.15652
head 11.5942 -1.88452 2.302
rclavicle -1.19488e-014 -1.72446e-014
rhumerus -33.3565 8.89966 -88.4856
rradius 37.5079
rwrist 1.41214
rhand -21.7146 -53.0221
rfingers 7.12502
rthumb 4.68431 -82.9503
lclavicle -1.19488e-014 -1.72446e-014
lhumerus -37.3466 -5.09263 86.6811
lradius 36.0617
lwrist 12.1426
lhand -35.1755 -26.6884
lfingers 7.12502
lthumb -8.3141 3.12797
rfemur -27.499 8.10306 31.3222
rtibia 34.1169
rfoot -15.2858 -9.73039
rtoes 7.80778
lfemur -35.8171 2.15521 -14.3162
ltibia 68.8219
lfoot -13.2681 6.2635
ltoes -9.91422
63
root 1.72878 17.4012 -38.3669 11.6277 -0.724141 -6.55177
lowerback -5.19778 1.25714 6.9207
upperback -4.15181 1.42934 1.71853
thorax -1.26315 0.587565 -2.04205
lowerneck -14.8357 -3.21099 -7.69958
upperneck 25.447 -3.66808 4.242
head 10.8832 -1.91032 2.3333
rclavicle -1.21251e-014 -1.27719e-014
rhumerus -34.3624 8.65447 -88.5962
rradius 37.9319
rwrist 1.13892
rhand -21.4386 -53.8133
rfingers 7.12502
rthumb 4.95088 -83.7355
lclavicle -1.21251e-014 -1.27719e-014
lhumerus -38.7664 -5.43656 86.8278
lradius 36.1758
lwrist 12.0288
lhand -35.0164 -26.6362
lfingers 7.12502
lthumb -8.16056 3.18621
rfemur -27.3513 8.01868 31.5243
rtibia 34.1986
rfoot -15.5323 -9.93643
rtoes 6.88191
lfemur -36.9904 1.65797 -14.244
ltibia 67.9942
lfoot -13.5852 6.5264
ltoes -5.67487
64
root 1.72695 17.3927 -38.2472 11.3353 -1.29622 -6.79967
lowerback -4.86114 1.50748 7.21857
upperback -3.64217 1.754 1.76846
thorax -0.887874 0.76667 -2.14296
lowerneck -16.8513 -3.39003 -7.60804
upperneck 26.1822 -3.73537 4.00775
head 11.5604 -1.94337 2.21291
rclavicle 1.03073e-014 -4.47266e-015
rhumerus -33.1311 8.76715 -88.3645
rradius 37.3824
rwrist 1.9268
rhand -22.5957 -51.8779
rfingers 7.12502
rthumb 3.83348 -81.8232
lclavicle 1.03073e-014 -4.47266e-015
lhumerus -38.2611 -5.47435 86.9273
lradius 36.4036
lwrist 12.0164
lhand -34.8003 -26.7855
lfingers 7.12502
lthumb -7.95205 3.04493
rfemur -26.5348 8.05433 31.8655
rtibia 34.2909
rfoot -16.0797 -9.66674
rtoes 6.10245
lfemur -37.1903 1.71586 -14.1176
ltibia 66.923
lfoot -14.0644 6.70334
ltoes -3.42748
65
root 1.70868 17.391 -38.1659 11.4823 -1.06274 -6.90961
lowerback -4.78943 1.57322 7.43403
upperback -4.00618 1.86156 1.65634
thorax -1.28891 0.794123 -2.38007
lowerneck -15.7871 -3.3915 -7.40538
upperneck 26.0784 -3.8617 3.94492
head 11.3103 -1.99937 2.14508
rclavicle -2.25939e-014 1.36664e-014
rhumerus -33.519 8.56067 -88.6052
rradius 37.7721
rwrist 1.70974
rhand -22.1658 -54.4057
rfingers 7.12502
rthumb 4.24867 -84.3431
lclavicle -2.25939e-014 1.36664e-014
lhumerus -38.9097 -5.91912 86.988
lradius 36.1159
lwrist 11.9265
lhand -34.5298 -27.3236
lfingers 7.12502
lthumb -7.69092 2.51655
rfemur -26.3918 8.0547 32.0814
rtibia 34.3418
rfoot -16.4868 -9.93982
rtoes 5.84542
lfemur -38.6121 1.18841 -13.9689
ltibia 65.8913
lfoot -10.0511 6.78516
ltoes 13.2257
66
root 1.69348 17.3673 -38.0796 11.6705 -0.931179 -6.95962
lowerback -4.4684 1.41441 7.3206
upperback -3.58187 1.66198 1.91256
thorax -1.05482 0.716615 -2.06365
lowerneck -18.5219 -3.46277 -7.8004
upperneck 26.794 -3.63742 3.95662
head 12.1323 -1.91248 2.23522
rclavicle -9.88643e-015 -2.42517e-014
rhumerus -31.9848 9.30605 -88.2934
rradius 37.1089
rwrist 3.22544
rhand -23.4919 -51.0518
rfingers 7.12502
rthumb 2.96809 -81.0109
lclavicle -9.88643e-015 -2.42517e-014
lhumerus -37.8818 -5.28018 87.0866
lradius 35.8432
lwrist 11.6428
lhand -34.4316 -28.5395
lfingers 7.12502
lthumb -7.59621 1.30411
rfemur -26.3818 8.07354 32.2312
rtibia 34.4962
rfoot -16.7609 -10.2605
rtoes 5.44567
lfemur -39.6124 0.699113 -13.8934
ltibia 64.601
lfoot -15.1051 8.04707
ltoes -6.78879
67
root 1.68887 17.3583 -37.9643 11.3807 -1.49842 -7.08992
lowerback -4.12743 1.6604 7.54763
upperback -4.46291 2.06829 1.84653
thorax -2.12018 0.859437 -2.26317
lowerneck -14.9196 -3.15747 -7.92393
upperneck 26.1999 -3.51272 4.14133
head 11.176 -1.87999 2.36541
rclavicle 8.0236e-015 5.51627e-014
rhumerus -33.9383 8.94147 -88.4743
rradius 38.318
rwrist 1.34215
rhand -20.4041 -56.0766
rfingers 7.12502
rthumb 5.94971 -85.9731
lclavicle 8.0236e-015 5.51627e-014
lhumerus -40.4697 -5.35574 87.1267
lradius 35.389
lwrist 11.2173
lhand -33.2287 -33.5046
lfingers 7.12502
lthumb -6.43499 -3.62231
rfemur -25.6252 8.0606 32.4424
rtibia 34.5981
rfoot -17.2401 -10.0168
rtoes 5.26965
lfemur -39.6255 0.671424 -13.8497
ltibia 63.1377
lfoot -15.552 8.20927
ltoes -8.11412
68
root 1.67218 17.3393 -37.8882 11.6449 -1.18491 -7.04624
lowerback -3.59609 1.53956 7.62387
upperback -4.17924 1.94116 1.7668
thorax -2.12888 0.798959 -2.40237
lowerneck -17.7142 -3.3316 -7.76451
upperneck 27.0536 -3.56105 4.03841
head 12.0652 -1.87607 2.28233
rclavicle 2.35901e-015 -6.11263e-015
rhumerus -32.4482 9.15866 -88.4888
rradius 37.5311
rwrist 2.28386
rhand -21.7588 -53.8533
rfingers 7.12502
rthumb 4.64164 -83.7825
lclavicle 2.35901e-015 -6.11263e-015
lhumerus -39.5941 -5.30915 86.9076
lradius 35.1828
lwrist 11.1973
lhand -33.1733 -33.6198
lfingers 7.12502
lthumb -6.38147 -3.73596
rfemur -25.6897 7.5627 32.5466
rtibia 34.738
rfoot -17.6416 -9.97356
rtoes 5.80715
lfemur -40.7335 0.115263 -13.7955
ltibia 61.6796
lfoot -15.4922 7.99728
ltoes -8.36848
69
root 1.66728 17.3337 -37.782 11.6569 -1.51345 -7.02833
lowerback -3.83172 1.77139 7.63079
upperback -4.64169 2.2529 1.71088
thorax -2.44812 0.932124 -2.45576
lowerneck -15.4135 -3.26418 -7.66878
upperneck 26.4685 -3.63058 3.89789
head 11.3748 -1.93474 2.21424
rclavicle -1.66886e-014 -2.78299e-014
rhumerus -33.6233 9.22107 -88.7128
rradius 38.0526
rwrist 1.15756
rhand -21.8962 -55.5989
rfingers 7.12502
rthumb 4.50905 -85.5309
lclavicle -1.66886e-014 -2.78299e-014
lhumerus -41.0193 -5.70239 87.2362
lradius 35.332
lwrist 11.3149
lhand -33.5246 -31.8923
lfingers 7.12502
lthumb -6.72062 -2.019
rfemur -25.1769 6.97187 32.6196
rtibia 34.6234
rfoot -17.9438 -9.45825
rtoes 5.71997
lfemur -41.1639 0.0752634 -13.9037
ltibia 60.0898
lfoot -15.4521 8.37735
ltoes -10.3442
70
root 1.6537 17.3311 -37.693 11.7491 -1.35311 -6.90358
lowerback -4.20377 1.71277 7.52543
upperback -4.03922 2.10449 1.7248
thorax -1.62749 0.902463 -2.36724
lowerneck -16.9706 -3.39409 -7.67563
upperneck 26.4956 -3.65917 3.81349
head 11.6986 -1.94148 2.16616
rclavicle 1.44259e-014 -3.57812e-015
rhumerus -31.9421 9.2321 -88.3884
rradius 38.8036
rwrist 0.204284
rhand -18.188 -61.7426
rfingers 7.12502
rthumb 8.08891 91.5678
lclavicle 1.44259e-014 -3.57812e-015
lhumerus -39.968 -5.60255 87.2567
lradius 35.2602
lwrist 11.5459
lhand -33.8852 -30.5988
lfingers 7.12502
lthumb -7.06873 -0.736868
rfemur -24.8205 6.45166 32.6326
rtibia 34.4551
rfoot -18.2178 -9.4623
rtoes 5.13646
lfemur -41.9325 -0.324846 -13.9633
ltibia 58.4779
lfoot -15.2452 8.27952
ltoes -10.4392
71
root 1.64994 17.3386 -37.5844 11.716 -1.61845 -6.95802
lowerback -3.99523 1.91161 7.6634
upperback -4.50397 2.41316 1.64082
thorax -2.1927 1.02216 -2.53433
lowerneck -15.4579 -3.31755 -7.5949
upperneck 26.2871 -3.70425 3.8489
head 11.317 -1.96379 2.17039
rclavicle -2.66247e-014 -5.91384e-015
rhumerus -32.8526 9.02584 -88.5238
rradius 39.4919
rwrist -0.324051
rhand -16.4343 -65.3066
rfingers 7.12502
rthumb 9.78119 95.0595
lclavicle -2.66247e-014 -5.91384e-015
lhumerus -41.3818 -6.01902 87.5121
lradius 35.6959
lwrist 11.7573
lhand -34.0245 -29.3533
lfingers 7.12502
lthumb -7.20324 0.504082
rfemur -24.0352 6.34585 32.7255
rtibia 33.972
rfoot -18.2608 -9.46199
rtoes 3.54951
lfemur -42.3245 -0.395492 -13.9034
ltibia 56.7597
lfoot -15.4559 8.22008
ltoes -9.63064
72
root 1.64116 17.3492 -37.4897 11.9207 -1.6928 -6.96492
lowerback -4.67419 2.05056 7.64213
upperback -4.28292 2.51736 1.64854
thorax -1.57265 1.1013 -2.48333
lowerneck -15.2495 -3.30163 -7.60248
upperneck 25.949 -3.70665 3.91888
head 11.1488 -1.9554 2.19545
rclavicle -2.51199e-014 -2.40529e-014
rhumerus -32.3908 9.13258 -88.4227
rradius 39.5033
rwrist -0.395008
rhand -16.6076 -64.9568
rfingers 7.12502
rthumb 9.61392 94.7175
lclavicle -2.51199e-014 -2.40529e-014
lhumerus -41.3244 -6.11656 87.682
lradius 35.8532
lwrist 11.7932
lhand -33.9042 -28.2485
lfingers 7.12502
lthumb -7.08711 1.61287
rfemur -23.6535 6.31249 32.7661
rtibia 33.4446
rfoot -18.3133 -9.21043
rtoes 4.21197
lfemur -42.9644 -0.489101 -13.8879
ltibia 54.9826
lfoot -14.8135 8.25754
ltoes -10.9088
73
root 1.64148 17.3739 -37.3526 11.625 -2.59191 -7.24951
lowerback -4.66633 2.33503 7.99536
upperback -4.18695 2.8791 1.71288
thorax -1.43121 1.28134 -2.59458
lowerneck -14.8709 -3.20768 -7.73085
upperneck 25.8329 -3.57721 3.95934
head 11.0251 -1.90744 2.25271
rclavicle 6.78663e-015 -3.18055e-015
rhumerus -32.6019 9.62631 -88.5529
rradius 38.8945
rwrist 0.805341
rhand -18.7182 -60.4844
rfingers 7.12502
rthumb 7.57712 90.3286
lclavicle 6.78663e-015 -3.18055e-015
lhumerus -41.8614 -5.7891 87.7425
lradius 35.9333
lwrist 11.87
lhand -33.9442 -27.4329
lfingers 7.12502
lthumb -7.12573 2.42716
rfemur -22.4241 6.66541 32.9906
rtibia 32.8263
rfoot -18.5304 -8.81795
rtoes 3.38517
lfemur -42.5718 -0.0197572 -13.7313
ltibia 53.1598
lfoot -14.8006 8.53787
ltoes -13.9153
74
root 1.62257 17.3861 -37.2778 11.8315 -2.2333 -7.25737
lowerback -4.61585 2.15353 7.91669
upperback -3.9541 2.63221 1.81587
thorax -1.24902 1.17311 -2.45306
lowerneck -15.9869 -3.22341 -7.8616
upperneck 25.8689 -3.48061 3.99889
head 11.2572 -1.85949 2.29446
rclavicle 1.98909e-014 -2.38542e-015
rhumerus -31.5988 10.0782 -88.4944
rradius 40.2525
rwrist -1.13306
rhand -15.0746 -67.41
rfingers 7.12502
rthumb 11.0928 97.0968
lclavicle 1.98909e-014 -2.38542e-015
lhumerus -41.3359 -5.26908 87.633
lradius 35.875
lwrist 12.0111
lhand -33.8764 -26.3657
lfingers 7.12502
lthumb -7.06021 3.49651
rfemur -22.0441 6.68502 33.0964
rtibia 32.2934
rfoot -18.7815 -8.73777
rtoes 4.85424
lfemur -43.3043 -0.280649 -13.6328
ltibia 51.3333
lfoot -14.5584 8.31067
ltoes -11.6203
